<?xml version="1.0" standalone="no"?><!DOCTYPE svg PUBLIC "-//W3C//DTD SVG 1.1//EN" "http://www.w3.org/Graphics/SVG/1.1/DTD/svg11.dtd"><svg t="1687088192074" class="icon" viewBox="0 0 1024 1024" version="1.1" xmlns="http://www.w3.org/2000/svg" p-id="13715" xmlns:xlink="http://www.w3.org/1999/xlink" width="200" height="200"><path d="M665.6 204.8H358.4c-84.48 0-153.6 69.12-153.6 153.6v307.2c0 84.48 69.12 153.6 153.6 153.6h307.2c84.48 0 153.6-69.12 153.6-153.6V358.4c0-84.48-69.12-153.6-153.6-153.6z" fill="#CCDAFF" p-id="13716"></path><path d="M396.8 673.28c0 12.8-10.24 23.04-23.04 23.04s-23.04-10.24-23.04-23.04v-199.68c0-12.8 10.24-23.04 23.04-23.04s23.04 10.24 23.04 23.04v199.68zM535.04 673.28c0 12.8-10.24 23.04-23.04 23.04s-23.04-10.24-23.04-23.04v-322.56c0-12.8 10.24-23.04 23.04-23.04s23.04 10.24 23.04 23.04v322.56zM673.28 673.28c0 12.8-10.24 23.04-23.04 23.04s-23.04-10.24-23.04-23.04v-76.8c0-12.8 10.24-23.04 23.04-23.04s23.04 10.24 23.04 23.04v76.8z" fill="#7A7AF9" p-id="13717"></path></svg>